<?xml version="1.0" encoding="utf-8"?>
<!-- Generator: Adobe Illustrator 23.0.1, SVG Export Plug-In . SVG Version: 6.00 Build 0)  -->
<svg version="1.1" id="Layer_1" xmlns="http://www.w3.org/2000/svg" xmlns:xlink="http://www.w3.org/1999/xlink" x="0px" y="0px"
	 viewBox="0 0 13 13" style="enable-background:new 0 0 13 13;" xml:space="preserve">
<style type="text/css">
	.st0{fill:#FFFFFF;}
</style>
<path class="st0" d="M8.6,6.5l3.9-3.9c0.6-0.6,0.6-1.5,0-2.1l0,0c-0.6-0.6-1.5-0.6-2.1,0L6.5,4.4L2.6,0.5C2-0.1,1-0.1,0.5,0.5
	C-0.1,1-0.1,2,0.5,2.6l3.9,3.9l-3.9,3.9c-0.6,0.6-0.6,1.5,0,2.1s1.5,0.6,2.1,0l3.9-3.9l3.9,3.9c0.6,0.6,1.5,0.6,2.1,0s0.6-1.5,0-2.1
	L8.6,6.5z"/>
</svg>
